<svg width="50" height="50" viewBox="0 0 50 50" fill="none" xmlns="http://www.w3.org/2000/svg">
<path d="M24.9998 8.33301C26.7811 8.33301 28.6082 8.37884 30.379 8.45384L32.4707 8.55384L34.4728 8.67259L36.3478 8.79967L38.0603 8.93301C39.919 9.07445 41.6682 9.86725 42.9997 11.1718C44.3313 12.4763 45.1599 14.2088 45.3394 16.0643L45.4228 16.9497L45.579 18.8455C45.7248 20.8101 45.8332 22.9518 45.8332 24.9997C45.8332 27.0476 45.7248 29.1893 45.579 31.1538L45.4228 33.0497L45.3394 33.9351C45.1598 35.7908 44.331 37.5237 42.999 38.8282C41.667 40.1328 39.9173 40.9254 38.0582 41.0663L36.3498 41.1976L34.4748 41.3268L32.4707 41.4455L30.379 41.5455C28.587 41.6231 26.7935 41.6634 24.9998 41.6663C23.2061 41.6634 21.4127 41.6231 19.6207 41.5455L17.529 41.4455L15.5269 41.3268L13.6519 41.1976L11.9394 41.0663C10.0807 40.9249 8.3315 40.1321 6.99993 38.8276C5.66835 37.5231 4.83982 35.7905 4.66025 33.9351L4.57692 33.0497L4.42067 31.1538C4.26199 29.1062 4.17721 27.0535 4.1665 24.9997C4.1665 22.9518 4.27484 20.8101 4.42067 18.8455L4.57692 16.9497L4.66025 16.0643C4.83975 14.2092 5.66799 12.4769 6.99914 11.1724C8.33028 9.86792 10.079 9.07492 11.9373 8.93301L13.6478 8.79967L15.5228 8.67259L17.5269 8.55384L19.6186 8.45384C21.4113 8.37619 23.2054 8.3359 24.9998 8.33301ZM24.9998 12.4997C23.2811 12.4997 21.5123 12.5455 19.7915 12.6163L17.754 12.7143L15.7978 12.8288L13.9603 12.9538L12.2769 13.0851C11.3919 13.147 10.5575 13.5208 9.92205 14.1398C9.28657 14.7589 8.89116 15.5833 8.80609 16.4663C8.56234 18.9851 8.33317 22.1205 8.33317 24.9997C8.33317 27.8788 8.56234 31.0143 8.80609 33.533C8.98317 35.3497 10.4248 36.7622 12.2769 36.9143L13.9603 37.0434L15.7978 37.1684L17.754 37.2851L19.7915 37.383C21.5123 37.4538 23.2811 37.4997 24.9998 37.4997C26.7186 37.4997 28.4873 37.4538 30.2082 37.383L32.2457 37.2851L34.2019 37.1705L36.0394 37.0455L37.7228 36.9143C38.6078 36.8523 39.4422 36.4786 40.0776 35.8595C40.7131 35.2404 41.1085 34.4161 41.1936 33.533C41.4373 31.0143 41.6665 27.8788 41.6665 24.9997C41.6665 22.1205 41.4373 18.9851 41.1936 16.4663C41.1085 15.5833 40.7131 14.7589 40.0776 14.1398C39.4422 13.5208 38.6078 13.147 37.7228 13.0851L36.0394 12.9559L34.2019 12.8309L32.2457 12.7143L30.2082 12.6163C28.473 12.5419 26.7366 12.503 24.9998 12.4997ZM20.8332 19.9476C20.833 19.744 20.8826 19.5434 20.9777 19.3633C21.0727 19.1833 21.2103 19.0291 21.3785 18.9143C21.5467 18.7995 21.7403 18.7276 21.9427 18.7047C22.145 18.6818 22.3499 18.7087 22.5394 18.783L22.7082 18.8663L31.4582 23.9163C31.6324 24.0169 31.7798 24.158 31.8879 24.3277C31.9959 24.4974 32.0614 24.6906 32.0788 24.891C32.0962 25.0914 32.0649 25.2931 31.9877 25.4788C31.9105 25.6646 31.7896 25.829 31.6353 25.958L31.4582 26.083L22.7082 31.1351C22.5318 31.2372 22.3332 31.2947 22.1296 31.3025C21.926 31.3103 21.7236 31.2682 21.54 31.1798C21.3563 31.0915 21.1971 30.9596 21.0761 30.7957C20.9551 30.6318 20.876 30.4408 20.8457 30.2393L20.8332 30.0518V19.9476Z" fill="black"/>
</svg>
