<svg width="50" height="50" viewBox="0 0 50 50" fill="none" xmlns="http://www.w3.org/2000/svg">
<path d="M25.0019 18.7503C23.3443 18.7503 21.7546 19.4088 20.5825 20.5809C19.4104 21.753 18.7519 23.3427 18.7519 25.0003C18.7519 26.6579 19.4104 28.2476 20.5825 29.4197C21.7546 30.5918 23.3443 31.2503 25.0019 31.2503C26.6595 31.2503 28.2492 30.5918 29.4213 29.4197C30.5934 28.2476 31.2519 26.6579 31.2519 25.0003C31.2519 23.3427 30.5934 21.753 29.4213 20.5809C28.2492 19.4088 26.6595 18.7503 25.0019 18.7503ZM25.0019 14.5837C27.7646 14.5837 30.4141 15.6811 32.3676 17.6346C34.3211 19.5881 35.4186 22.2377 35.4186 25.0003C35.4186 27.763 34.3211 30.4125 32.3676 32.366C30.4141 34.3195 27.7646 35.417 25.0019 35.417C22.2393 35.417 19.5897 34.3195 17.6362 32.366C15.6827 30.4125 14.5853 27.763 14.5853 25.0003C14.5853 22.2377 15.6827 19.5881 17.6362 17.6346C19.5897 15.6811 22.2393 14.5837 25.0019 14.5837ZM38.5436 14.0628C38.5436 14.7535 38.2692 15.4159 37.7808 15.9043C37.2925 16.3926 36.6301 16.667 35.9394 16.667C35.2488 16.667 34.5864 16.3926 34.098 15.9043C33.6096 15.4159 33.3353 14.7535 33.3353 14.0628C33.3353 13.3722 33.6096 12.7098 34.098 12.2214C34.5864 11.733 35.2488 11.4587 35.9394 11.4587C36.6301 11.4587 37.2925 11.733 37.7808 12.2214C38.2692 12.7098 38.5436 13.3722 38.5436 14.0628ZM25.0019 8.33366C19.8478 8.33366 19.0061 8.34824 16.6082 8.45449C14.9748 8.53158 13.879 8.75033 12.8623 9.14616C12.012 9.45943 11.243 9.95998 10.6123 10.6107C9.96082 11.2412 9.45955 12.0102 9.14567 12.8607C8.74984 13.8816 8.53109 14.9753 8.45609 16.6066C8.34775 18.9066 8.33317 19.7107 8.33317 25.0003C8.33317 30.1566 8.34775 30.9962 8.454 33.3941C8.53109 35.0253 8.74984 36.1232 9.14359 37.1378C9.49775 38.0441 9.91442 38.6962 10.6061 39.3878C11.3082 40.0878 11.9603 40.5066 12.8561 40.8524C13.8853 41.2503 14.9811 41.4712 16.6061 41.5462C18.9061 41.6545 19.7103 41.667 24.9998 41.667C30.1561 41.667 30.9957 41.6524 33.3936 41.5462C35.0228 41.4691 36.1186 41.2503 37.1373 40.8566C37.9877 40.5433 38.7567 40.0428 39.3873 39.392C40.0894 38.692 40.5082 38.0399 40.854 37.142C41.2498 36.117 41.4707 35.0212 41.5457 33.392C41.654 31.0941 41.6665 30.2878 41.6665 25.0003C41.6665 19.8462 41.6519 19.0045 41.5457 16.6066C41.4686 14.9774 41.2478 13.8774 40.854 12.8607C40.5407 12.0104 40.0402 11.2414 39.3894 10.6107C38.759 9.95923 37.99 9.45795 37.1394 9.14408C36.1186 8.74824 35.0228 8.52949 33.3936 8.45449C31.0957 8.34616 30.2915 8.33366 24.9998 8.33366M24.9998 4.16699C30.6603 4.16699 31.3665 4.18783 33.5894 4.29199C35.8061 4.39616 37.3186 4.74408 38.6457 5.26074C40.0207 5.78991 41.179 6.50658 42.3373 7.66283C43.3971 8.70394 44.2169 9.96381 44.7394 11.3545C45.254 12.6816 45.604 14.1941 45.7082 16.4128C45.8061 18.6337 45.8332 19.3399 45.8332 25.0003C45.8332 30.6607 45.8123 31.367 45.7082 33.5878C45.604 35.8087 45.254 37.317 44.7394 38.6462C44.2169 40.0368 43.3971 41.2967 42.3373 42.3378C41.2962 43.3976 40.0364 44.2174 38.6457 44.7399C37.3186 45.2545 35.8061 45.6045 33.5894 45.7087C31.3665 45.8066 30.6603 45.8337 24.9998 45.8337C19.3394 45.8337 18.6332 45.8128 16.4103 45.7087C14.1936 45.6045 12.6832 45.2545 11.354 44.7399C9.96332 44.2174 8.70345 43.3976 7.66234 42.3378C6.60256 41.2967 5.78279 40.0368 5.26025 38.6462C4.74359 37.3191 4.39567 35.8066 4.2915 33.5878C4.1915 31.367 4.1665 30.6607 4.1665 25.0003C4.1665 19.3399 4.18734 18.6337 4.2915 16.4128C4.39567 14.192 4.74359 12.6837 5.26025 11.3545C5.78279 9.96381 6.60256 8.70394 7.66234 7.66283C8.70345 6.60305 9.96332 5.78328 11.354 5.26074C12.6811 4.74408 14.1915 4.39616 16.4103 4.29199C18.6353 4.19408 19.3415 4.16699 25.0019 4.16699" fill="black"/>
</svg>
