<svg width="40" height="41" viewBox="0 0 40 41" fill="none" xmlns="http://www.w3.org/2000/svg">
<path d="M35 20.5C35 20.8315 34.8683 21.1495 34.6339 21.3839C34.3995 21.6183 34.0815 21.75 33.75 21.75H6.25C5.91848 21.75 5.60054 21.6183 5.36612 21.3839C5.1317 21.1495 5 20.8315 5 20.5C5 20.1685 5.1317 19.8505 5.36612 19.6161C5.60054 19.3817 5.91848 19.25 6.25 19.25H33.75C34.0815 19.25 34.3995 19.3817 34.6339 19.6161C34.8683 19.8505 35 20.1685 35 20.5ZM6.25 11.75H33.75C34.0815 11.75 34.3995 11.6183 34.6339 11.3839C34.8683 11.1495 35 10.8315 35 10.5C35 10.1685 34.8683 9.85054 34.6339 9.61612C34.3995 9.3817 34.0815 9.25 33.75 9.25H6.25C5.91848 9.25 5.60054 9.3817 5.36612 9.61612C5.1317 9.85054 5 10.1685 5 10.5C5 10.8315 5.1317 11.1495 5.36612 11.3839C5.60054 11.6183 5.91848 11.75 6.25 11.75ZM33.75 29.25H6.25C5.91848 29.25 5.60054 29.3817 5.36612 29.6161C5.1317 29.8505 5 30.1685 5 30.5C5 30.8315 5.1317 31.1495 5.36612 31.3839C5.60054 31.6183 5.91848 31.75 6.25 31.75H33.75C34.0815 31.75 34.3995 31.6183 34.6339 31.3839C34.8683 31.1495 35 30.8315 35 30.5C35 30.1685 34.8683 29.8505 34.6339 29.6161C34.3995 29.3817 34.0815 29.25 33.75 29.25Z" fill="black"/>
</svg>
